<svg fill="currentColor" stroke="currentColor"
	xmlns="http://www.w3.org/2000/svg" version="1.0" viewBox="0 0 281 320" class="w-7 h-7">
	<path d="M111.5 2c-19.3 2.2-26.9 3.4-40 6.7C41 16.3 11.7 33.3 3.8 48.1l-2.3 4.4-.3 91.5c-.2 59.6.1 94.3.8 99.5 1.4 11 5.4 18.9 13 25.8l6 5.4v16.9c0 9.3.5 18.6 1 20.6 1.9 6.9 8.2 9.6 14.1 6.1 4.2-2.5 4.9-5.9 4.9-22.9V280h200v14.2c0 7.9.5 16 1 18 1.2 4.3 5.2 7.8 8.7 7.8 3.7 0 8.1-3 9.3-6.3.5-1.7 1-11.2 1-21.2v-18.1l4.5-3.4c5.1-3.8 10.6-11.3 13.2-18 1.7-4.2 1.8-11.3 2.1-100.9.3-106.9.6-100.6-6.3-110.1-4.9-6.7-14.7-13.9-28.5-20.9-22.9-11.7-39.7-15.9-78.8-19.6C147-.4 132.1-.2 111.5 2zm56.6 19.1c17.4 1.4 39.9 5.2 49.4 8.4 14.8 4.9 34.3 16.1 40.4 23.1 3.1 3.5 3.1 3.5 3.1 15.4v12H21V56.2l5.2-4.7c6.2-5.6 15.4-11 27.5-16.4 18.1-7.9 34.6-11.5 66.3-14.5 8.6-.7 35.8-.5 48.1.5zM131 130v30H21v-60h110v30zm130 0v30H151v-60h110v30zm-.2 83.8-.3 33.8-2.7 4.1c-1.6 2.4-4.4 4.9-7 6.2-4.4 2.1-4.5 2.1-109.6 2.1-71.8 0-106-.3-107.9-1.1-4-1.5-8.2-5.7-10.4-10.4-1.7-3.6-1.9-7-1.9-36.3V180h240.1l-.3 33.8z"></path>
	<path d="M108.3 40.7c-6 1.2-8.4 10.8-3.9 16l2.4 2.8h33.5c37.3 0 37.9-.1 39.8-6.5 1.7-5.5-.7-10.5-5.8-11.9-3.6-1-61-1.4-66-.4zM56.7 206.4c-6.8 2.5-9.7 6.6-9.7 13.8 0 15.5 22 19.8 27.6 5.3 2.1-5.7 1.3-10.4-2.7-15-1.7-1.9-4.7-3.9-6.7-4.5-4.4-1.2-3.8-1.2-8.5.4zM216.7 206.4c-6.8 2.5-9.7 6.6-9.7 13.8 0 15.5 22 19.8 27.6 5.3 2.1-5.7 1.3-10.4-2.7-15-1.7-1.9-4.7-3.9-6.7-4.5-4.4-1.2-3.8-1.2-8.5.4z"></path>
</svg>