<svg fill="currentColor" stroke="currentColor"
	xmlns="http://www.w3.org/2000/svg" version="1.0" viewBox="0 0 321 320" class="w-7 h-7">
	<path d="M94.5 21.1C81.5 23 72.1 27.9 63.6 37 59 41.9 53.6 51.8 52 58.3c-.5 1.8-1.8 6.3-3 10.2-1.2 3.8-2.5 8.3-3 10-.5 1.6-2.3 7.7-4 13.5-1.7 5.8-4.8 16.1-6.7 22.8-3.6 12.4-3.6 12.4-8.7 16.1-7.8 5.8-15.9 15.1-19.4 22.3C1.1 165.9 1 167.1 1 232.6c0 61.1.1 62.2 3.9 65.1 2 1.5 7.6 1.7 10.1.3 3.8-2 4.5-5.1 5-21.5l.5-16h280l.2 15c.2 8.2.5 16 .8 17.2 1.2 5.2 8.4 8 13.6 5.3 4.9-2.7 4.9-2.9 4.9-64.3 0-35.4-.4-59.6-1-63.3-2.8-15.9-11.6-30-23.9-38.3-5-3.4-5.9-4.5-7.3-9.2-3.8-12.4-8.1-26.7-14.3-47.9-3.7-12.4-8-25.1-9.6-28.2-5.5-10.9-17.8-20.7-30.5-24.5-5.3-1.5-12.3-1.7-69.4-1.9-34.9-.1-66.2.2-69.5.7zm131 19c7.7 1.4 12.3 3.8 16.8 8.8 4.6 5.1 6 7.8 8.7 17.1 1.2 4.1 3 10.2 4.1 13.5 1.1 3.3 2.3 7.3 2.8 9 4 13.3 7.4 24.4 8.2 26.3.5 1.3.9 3.2.9 4.2 0 2-1.5 2-106.4 2-70.4 0-106.7-.3-107.1-1-.3-.6.2-3.6 1.3-6.8 1.1-3.1 2.9-9.1 4.1-13.2 1.3-4.1 2.6-8.6 3-10 .5-1.4 1.9-5.9 3.1-10 7.4-24.2 8.4-26.4 14.2-32.1 4.6-4.5 9.1-6.7 15.8-7.9 7.2-1.2 123.6-1.2 130.5.1zm46.2 101.4c9.8 3.2 14.6 6.5 20.4 14.2 8.3 11 8.9 14.1 8.9 51.1 0 23.4-.3 32.1-1.2 33-.9.9-33.1 1.2-138.9 1.2-75.8 0-138.4-.3-139.3-.6-1.4-.5-1.6-4.5-1.6-33.8 0-36.5.3-39.3 6-47.7 6.2-9.4 13-14.5 23.8-17.9 5.3-1.7 12.5-1.8 109.9-1.9l104.2-.1 7.8 2.5z"></path>
	<path d="M60.5 171.7c-5 1.7-7.2 3.7-8.6 8-2.2 6.8.8 15 6.8 18.1 3.1 1.7 9.9 1.5 13.4-.3 8.9-4.7 9.3-20 .6-24.7-4-2.1-8.2-2.5-12.2-1.1zM248.3 172.6c-9.5 4.7-9.6 19.6-.2 24.6 9.9 5.3 21-1.1 21.2-12.3.2-10.6-11.1-17.2-21-12.3z"></path>
</svg>