<svg fill="currentColor" stroke="currentColor"
	xmlns="http://www.w3.org/2000/svg" version="1.0" viewBox="0 0 281 320" class="w-7 h-7">
	<path d="M48.4 1.5C24.1 6.8 7.3 23.7 1.9 48.1 0 56.9-.1 60.3.3 142.9c.3 92.8.1 88.5 5.8 101.7 6.5 15 21 27.8 36.7 32.4 2.3.7 4.2 1.5 4.2 1.8 0 .3-5.8 6.5-13 13.8-11.9 12-13 13.5-13 16.8 0 2 .7 4.7 1.5 6 2 3 6.7 5 9.6 4.1 1.3-.4 11.4-9.5 22.5-20.1L74.8 280h131.6l19.6 19.4c11.7 11.7 20.6 19.7 22.1 20.1 5.8 1.4 12.8-5.6 11.4-11.4-.4-1.5-6.3-8.2-13.6-15.6-7.1-7.2-12.9-13.3-12.9-13.6 0-.3 1.9-1.1 4.3-1.8 13.9-4.2 28.4-16 34.9-28.6 7.7-15 7.3-8.3 7.3-109v-90l-2.2-7c-5.9-18.6-19.9-32.9-38.7-39.3L230.5.5l-88-.2C72 .2 53.3.4 48.4 1.5zM130 80v60H20V98.2c0-45.2.4-49 5.5-57.9 3.3-5.6 10.8-12.9 15.9-15.5 8.4-4.3 11.4-4.6 50.9-4.7L130 20v60zm106-56.4c8.1 3.8 13.3 8.3 17.7 15.2 6.2 9.6 6.3 10.3 6.3 57.9V140H150V19.9l39.8.3 39.7.3 6.5 3.1zm24 169.7c0 28.5-.2 34.1-1.7 38.3-4.7 14-16 24.5-29.3 27.4-4 .8-28.9 1-92 .8l-86.5-.3-6.7-3.2c-11.2-5.3-19.1-14.8-22.2-26.8-1.3-4.7-1.6-12.2-1.6-37.7V160h240v33.3z"></path>
	<path d="M70.7 191.4c-6.8 2.5-9.7 6.6-9.7 13.8 0 15.5 22 19.8 27.6 5.3 2.1-5.7 1.3-10.4-2.7-15-1.7-1.9-4.7-3.9-6.7-4.5-4.4-1.2-3.8-1.2-8.5.4zM200.7 191.4c-6.8 2.5-9.7 6.6-9.7 13.8 0 15.5 22 19.8 27.6 5.3 2.1-5.7 1.3-10.4-2.7-15-1.7-1.9-4.7-3.9-6.7-4.5-4.4-1.2-3.8-1.2-8.5.4z"></path>
</svg>