<svg fill="currentColor" stroke="currentColor"
	xmlns="http://www.w3.org/2000/svg" version="1.0" viewBox="0 0 281 320" class="w-7 h-7">
	<path d="M63.3 21.4c-11.2 2.8-18.7 10.5-21.8 22.3-2.1 8.1-2.3 244.5-.2 249.6 1.9 4.3 4 5.9 8.1 6 4.7.1 8.3-2 9.6-5.6.6-1.9 1-19.3 1-48.3V200h44.8c24.6 0 48.8-.5 53.7-1 39.1-4.4 68.4-29.3 78.1-66.5 5-19 3-42.5-5-60-9.2-20.2-26-36.3-46.6-44.8-16.3-6.7-18.3-6.9-70-7.3-35.7-.2-47.7 0-51.7 1zm107.5 21.3c7.4 2.5 17.8 8.1 23.4 12.6 5.9 4.7 14.2 15.1 18.3 22.8 9.8 18.8 10.1 43.8.5 63-8.1 16.5-22.8 29.3-40.5 35.6l-8 2.8-52.2.3-52.3.3V114c0-70.4 0-70.1 4.7-73 1.2-.7 17.7-.9 50.8-.7 46.6.3 49.3.4 55.3 2.4z"></path>
</svg>